<svg width="47" height="46" viewBox="0 0 47 46" fill="none" xmlns="http://www.w3.org/2000/svg">
<rect x="1.14318" y="0.47619" width="44.7619" height="44.7619" rx="22.381" stroke="black" stroke-width="0.952381"/>
<path d="M23.9978 20.3322C22.5289 20.3322 21.3301 21.531 21.3301 23C21.3301 24.469 22.5289 25.6678 23.9978 25.6678C25.4668 25.6678 26.6656 24.469 26.6656 23C26.6656 21.531 25.4668 20.3322 23.9978 20.3322ZM31.9991 23C31.9991 21.8953 32.0091 20.8005 31.9471 19.6978C31.885 18.4169 31.5928 17.2801 30.6562 16.3435C29.7176 15.4049 28.5829 15.1147 27.302 15.0526C26.1973 14.9906 25.1026 15.0006 23.9999 15.0006C22.8951 15.0006 21.8004 14.9906 20.6977 15.0526C19.4168 15.1147 18.2801 15.4069 17.3435 16.3435C16.4049 17.2821 16.1147 18.4169 16.0526 19.6978C15.9906 20.8025 16.0006 21.8973 16.0006 23C16.0006 24.1027 15.9906 25.1995 16.0526 26.3022C16.1147 27.5831 16.4069 28.7199 17.3435 29.6565C18.2821 30.5951 19.4168 30.8853 20.6977 30.9474C21.8024 31.0094 22.8971 30.9994 23.9999 30.9994C25.1046 30.9994 26.1993 31.0094 27.302 30.9474C28.5829 30.8853 29.7196 30.5931 30.6562 29.6565C31.5948 28.7179 31.885 27.5831 31.9471 26.3022C32.0111 25.1995 31.9991 24.1047 31.9991 23ZM23.9978 27.1048C21.7264 27.1048 19.8932 25.2715 19.8932 23C19.8932 20.7285 21.7264 18.8952 23.9978 18.8952C26.2693 18.8952 28.1025 20.7285 28.1025 23C28.1025 25.2715 26.2693 27.1048 23.9978 27.1048ZM28.2707 19.6858C27.7403 19.6858 27.312 19.2575 27.312 18.7271C27.312 18.1968 27.7403 17.7685 28.2707 17.7685C28.801 17.7685 29.2293 18.1968 29.2293 18.7271C29.2294 18.853 29.2048 18.9778 29.1566 19.0942C29.1085 19.2105 29.0379 19.3163 28.9489 19.4053C28.8598 19.4944 28.7541 19.565 28.6377 19.6131C28.5213 19.6612 28.3966 19.6859 28.2707 19.6858Z" fill="black"/>
</svg>
