<svg width="46" height="46" viewBox="0 0 46 46" fill="none" xmlns="http://www.w3.org/2000/svg">
<rect x="0.47619" y="0.47619" width="44.7619" height="44.7619" rx="22.381" stroke="black" stroke-width="0.952381"/>
<path d="M16.1746 18.2838C17.3255 18.2838 18.2584 17.3509 18.2584 16.2C18.2584 15.0492 17.3255 14.1162 16.1746 14.1162C15.0238 14.1162 14.0908 15.0492 14.0908 16.2C14.0908 17.3509 15.0238 18.2838 16.1746 18.2838Z" fill="black"/>
<path d="M20.2255 19.8619V31.4228H23.815V25.7057C23.815 24.1971 24.0988 22.7362 25.9693 22.7362C27.8141 22.7362 27.8369 24.4609 27.8369 25.8009V31.4238H31.4284V25.0838C31.4284 21.9695 30.7579 19.5762 27.1179 19.5762C25.3703 19.5762 24.1988 20.5352 23.7198 21.4428H23.6712V19.8619H20.2255ZM14.376 19.8619H17.9712V31.4228H14.376V19.8619Z" fill="black"/>
</svg>
