<svg width="46" height="46" viewBox="0 0 46 46" fill="none" xmlns="http://www.w3.org/2000/svg">
<rect x="0.47619" y="0.47619" width="44.7619" height="44.7619" rx="22.381" stroke="black" stroke-width="0.952381"/>
<path fill-rule="evenodd" clip-rule="evenodd" d="M29.5549 17.2159C30.293 17.4134 30.873 17.9934 31.0705 18.7315C31.4276 20.0678 31.429 22.8577 31.429 22.8577C31.429 22.8577 31.429 25.6476 31.0705 26.984C30.873 27.722 30.293 28.302 29.5549 28.4995C28.2186 28.858 22.8576 28.858 22.8576 28.858C22.8576 28.858 17.4965 28.858 16.1602 28.4995C15.4221 28.302 14.8421 27.722 14.6446 26.984C14.2861 25.6476 14.2861 22.8577 14.2861 22.8577C14.2861 22.8577 14.2861 20.0678 14.6446 18.7315C14.8421 17.9934 15.4221 17.4134 16.1602 17.2159C17.4965 16.8574 22.8576 16.8574 22.8576 16.8574C22.8576 16.8574 28.2186 16.8574 29.5549 17.2159ZM25.5953 22.8579L21.1417 25.429V20.2868L25.5953 22.8579Z" fill="black"/>
</svg>
